<?xml version="1.0" encoding="UTF-8"?>
<svg width="40px" height="40px" viewBox="0 0 40 40" version="1.1" xmlns="http://www.w3.org/2000/svg" xmlns:xlink="http://www.w3.org/1999/xlink">
    <!-- Generator: sketchtool 53.1 (72631) - https://sketchapp.com -->
    <title>D214337E-A24A-4BBF-887F-E03E6927B5E2</title>
    <desc>Created with sketchtool.</desc>
    <g id="Symbols" stroke="none" stroke-width="1" fill="none" fill-rule="evenodd">
        <g id="Icon/40px/channel-placeholder">
            <rect id="Rectangle" x="0" y="0" width="40" height="40"></rect>
            <path d="M12,15 L12,25 L28,25 L28,15 L12,15 Z M12,14 L28,14 C28.5522847,14 29,14.4477153 29,15 L29,25 C29,25.5522847 28.5522847,26 28,26 L12,26 C11.4477153,26 11,25.5522847 11,25 L11,15 C11,14.4477153 11.4477153,14 12,14 Z M16.5,27 L23.5,27 C23.7761424,27 24,27.2238576 24,27.5 C24,27.7761424 23.7761424,28 23.5,28 L16.5,28 C16.2238576,28 16,27.7761424 16,27.5 C16,27.2238576 16.2238576,27 16.5,27 Z" id="Shape" fill="#959BA5" fill-rule="nonzero"></path>
        </g>
    </g>
</svg>