<?xml version="1.0" encoding="UTF-8"?>
<svg width="56px" height="40px" viewBox="0 0 56 40" version="1.1" xmlns="http://www.w3.org/2000/svg" xmlns:xlink="http://www.w3.org/1999/xlink">
    <!-- Generator: sketchtool 53.1 (72631) - https://sketchapp.com -->
    <title>EE008A34-3CFF-43EB-9020-7763E104D166</title>
    <desc>Created with sketchtool.</desc>
    <g id="1280" stroke="none" stroke-width="1" fill="none" fill-rule="evenodd" fill-opacity="0.08">
        <g id="1280-TV-Scroll-1" transform="translate(-80.000000, -16.000000)" fill="#FFFFFF">
            <g id="Header">
                <g id="Icon/logo-placeholder" transform="translate(80.000000, 16.000000)">
                    <path d="M2,36.7837394 L26.2431791,20 L2,3.21626064 L2,36.7837394 Z M3.75682092,38 L52.2431791,38 L28,21.2162606 L3.75682092,38 Z M54,3.21626064 L29.7568209,20 L54,36.7837394 L54,3.21626064 Z M52.2431791,2 L3.75682092,2 L28,18.7837394 L52.2431791,2 Z M2,0 L54,0 C55.1045695,-2.02906125e-16 56,0.8954305 56,2 L56,38 C56,39.1045695 55.1045695,40 54,40 L2,40 C0.8954305,40 1.3527075e-16,39.1045695 0,38 L0,2 C-1.3527075e-16,0.8954305 0.8954305,2.02906125e-16 2,0 Z" id="Combined-Shape"></path>
                </g>
            </g>
        </g>
    </g>
</svg>