<?xml version="1.0" encoding="UTF-8"?>
<svg width="64px" height="56px" viewBox="0 0 64 56" version="1.1" xmlns="http://www.w3.org/2000/svg" xmlns:xlink="http://www.w3.org/1999/xlink">
    <!-- Generator: sketchtool 53.1 (72631) - https://sketchapp.com -->
    <title>0DD170B8-23CE-48ED-8E88-236D68E974A2</title>
    <desc>Created with sketchtool.</desc>
    <defs>
        <linearGradient x1="50%" y1="22.4376396%" x2="50%" y2="4.76644588%" id="linearGradient-1">
            <stop stop-color="#EEEEEE" stop-opacity="0" offset="0%"></stop>
            <stop stop-color="#FFFFFF" stop-opacity="0.0790591033" offset="100%"></stop>
        </linearGradient>
        <linearGradient x1="50%" y1="18.7042678%" x2="50%" y2="4.76644588%" id="linearGradient-2">
            <stop stop-color="#EEEEEE" stop-opacity="0" offset="0%"></stop>
            <stop stop-color="#FFFFFF" stop-opacity="0.206578351" offset="100%"></stop>
        </linearGradient>
        <path d="M44.8730227,38.0343246 C43.7292064,38.0251502 42.8082776,37.0532849 42.8141925,35.8616208 L42.8141925,28.387742 C42.8141925,27.8320633 42.4995008,27.6820301 42.1154703,28.076562 L34.3335187,36.0616651 C33.0548131,37.3824517 30.9931907,37.3824517 29.7144851,36.0616651 L21.8631947,28.0710052 C21.4791642,27.6820301 21.1644725,27.8209498 21.1644725,28.3821853 L21.1644725,35.8116097 C21.1703874,37.0032738 20.2494585,37.9751391 19.1056423,37.9843135 L4.11778486,37.9843135 C3.01770253,37.9769726 1.96555937,37.5142581 1.19318984,36.6981266 C0.420820298,35.8819951 -0.00839319262,34.7794204 0.000124391713,33.6333491 L0.000124391713,5.06034956 C-0.00839305562,3.80028266 0.463922651,2.58830311 1.31316125,1.69104846 C2.16239985,0.79379381 3.31899153,0.28476737 4.52848415,0.27595582 L18.540264,0.27595582 C20.6780164,0.278720839 22.7271328,1.1662219 24.2367166,2.74316932 L30.8399078,9.61691503 C31.4786607,10.2788246 32.5106718,10.2788246 33.1494247,9.61691503 L39.7579497,2.74316932 C41.2675334,1.1662219 43.3166499,0.278720839 45.4544022,0.27595582 L59.4661821,0.27595582 C60.676602,0.283299208 61.8345631,0.791679102 62.6849535,1.68909366 C63.5353439,2.58650821 64.0083905,3.79932601 63.9998756,5.06034956 L63.9998756,33.6611331 C64.0083932,34.8072043 63.5791797,35.909779 62.8068102,36.7259105 C62.0344406,37.542042 60.9822975,38.0047566 59.8822151,38.0120974 L44.8730227,38.0343246 Z" id="path-3"></path>
        <linearGradient x1="2.59889812%" y1="50%" x2="65.0495864%" y2="42.5563497%" id="linearGradient-5">
            <stop stop-color="#EEEEEE" stop-opacity="0" offset="0%"></stop>
            <stop stop-color="#FFFFFF" stop-opacity="0.206578351" offset="100%"></stop>
        </linearGradient>
    </defs>
    <g id="1280" stroke="none" stroke-width="1" fill="none" fill-rule="evenodd">
        <g id="1280-Sign-in-Step-1" transform="translate(-608.000000, -136.000000)">
            <g id="Content" transform="translate(384.000000, 136.000000)">
                <g id="Logo/logo-l" transform="translate(224.000000, 0.000000)">
                    <g id="Ministra-logo">
                        <path d="M41.5790126,27.1007647 C41.1755926,27.0983311 40.7897126,26.9321699 40.5065737,26.6389688 C40.2234349,26.3457678 40.0663253,25.9496427 40.0699344,25.5380568 L40.0699344,20.1861283 C40.0699344,19.7804697 39.8395063,19.679055 39.559378,19.9602502 L33.8483753,25.6993984 C32.9109128,26.6498817 31.397189,26.6498817 30.4597265,25.6993984 L24.7170964,19.9602502 C24.4369681,19.679055 24.20654,19.7804697 24.20654,20.1861283 L24.20654,25.5380568 C24.2101491,25.9496427 24.0530395,26.3457678 23.7699007,26.6389688 C23.4867619,26.9321699 23.1008818,27.0983311 22.6974618,27.1007647 L11.6911306,27.1007647 C10.0135287,27.0880786 8.6629569,25.691573 8.67297414,23.9799588 L8.67297414,3.43426938 C8.66696235,2.52955124 9.01346676,1.65945363 9.63625613,1.01539868 C10.2590455,0.371343731 11.1071011,0.00609230947 11.9938499,0 L22.2682329,0 C23.8347885,0.00218935424 25.3363993,0.638881372 26.4430482,1.7701469 L30.9612465,6.37990445 C31.6186089,7.04678562 32.6804565,7.04678562 33.3378189,6.37990445 L37.8560172,1.7701469 C38.9626662,0.638881372 40.4642769,0.00218935424 42.0308325,0 L52.3052155,0 C53.1919644,0.00609230947 54.0400199,0.371343731 54.6628093,1.01539868 C55.2855987,1.65945363 55.6321031,2.52955124 55.6260913,3.43426938 L55.6260913,23.975349 C55.6361085,25.6869633 54.2855367,27.0834689 52.6079348,27.0961549 L41.5790126,27.1007647 Z" id="Shape-Copy" fill="#712162" fill-rule="nonzero"></path>
                        <path d="M41.5790126,27.1007647 C41.1755926,27.0983311 40.7897126,26.9321699 40.5065737,26.6389688 C40.2234349,26.3457678 40.0663253,25.9496427 40.0699344,25.5380568 L40.0699344,20.1861283 C40.0699344,19.7804697 39.8395063,19.679055 39.559378,19.9602502 L33.8483753,25.6993984 C32.9109128,26.6498817 31.397189,26.6498817 30.4597265,25.6993984 L24.7170964,19.9602502 C24.4369681,19.679055 24.20654,19.7804697 24.20654,20.1861283 L24.20654,25.5380568 C24.2101491,25.9496427 24.0530395,26.3457678 23.7699007,26.6389688 C23.4867619,26.9321699 23.1008818,27.0983311 22.6974618,27.1007647 L11.6911306,27.1007647 C10.0135287,27.0880786 8.6629569,25.691573 8.67297414,23.9799588 L8.67297414,3.43426938 C8.66696235,2.52955124 9.01346676,1.65945363 9.63625613,1.01539868 C10.2590455,0.371343731 11.1071011,0.00609230947 11.9938499,0 L22.2682329,0 C23.8347885,0.00218935424 25.3363993,0.638881372 26.4430482,1.7701469 L30.9612465,6.37990445 C31.6186089,7.04678562 32.6804565,7.04678562 33.3378189,6.37990445 L37.8560172,1.7701469 C38.9626662,0.638881372 40.4642769,0.00218935424 42.0308325,0 L52.3052155,0 C53.1919644,0.00609230947 54.0400199,0.371343731 54.6628093,1.01539868 C55.2855987,1.65945363 55.6321031,2.52955124 55.6260913,3.43426938 L55.6260913,23.975349 C55.6361085,25.6869633 54.2855367,27.0834689 52.6079348,27.0961549 L41.5790126,27.1007647 Z" id="Shape-Copy" fill="url(#linearGradient-1)" fill-rule="nonzero"></path>
                        <path d="M41.0141023,55.7240442 C40.6290938,55.7216223 40.2607877,55.5615133 39.9902107,55.2789409 C39.7196337,54.9963685 39.5689512,54.6144807 39.5713132,54.2172923 L39.5713132,49.0421264 C39.5713132,48.6482642 39.3493457,48.5520885 39.0829846,48.8268761 L36.1352555,51.8312202 C33.8492849,54.1690011 30.1640331,54.1690011 27.8780626,51.8312202 L24.899258,48.8085569 C24.6284576,48.5383491 24.4109294,48.6345248 24.4109294,49.0238072 L24.4109294,54.1989731 C24.4132914,54.5961615 24.2626089,54.9780493 23.9920319,55.2606217 C23.7214549,55.5431941 23.3531488,55.7033032 22.9681403,55.705725 L12.455757,55.705725 C11.6849655,55.7008848 10.9476764,55.3800372 10.4063946,54.8138999 C9.86511282,54.2477625 9.56427155,53.4828089 9.57017884,52.6876415 L9.57017884,32.8571383 C9.56427141,31.9825936 9.89537445,31.1414493 10.4906448,30.5187583 C11.0859152,29.8960673 11.8965883,29.5428406 12.7443148,29.5367884 L22.5641594,29.5367884 C24.0635784,29.5378557 25.5010232,30.1540911 26.5595753,31.249631 L31.6959045,36.5438716 C31.8667973,36.7096338 32.1332027,36.7096338 32.3040955,36.5438716 L37.4404247,31.249631 C38.4989768,30.1540911 39.9364216,29.5378557 41.4358406,29.5367884 L51.2556852,29.5367884 C52.1034117,29.5428406 52.9140848,29.8960673 53.5093552,30.5187583 C54.1046256,31.1414493 54.4357286,31.9825936 54.4298212,32.8571383 L54.4298212,52.7059607 C54.4357285,53.5011281 54.1348872,54.2660817 53.5936054,54.832219 C53.0523236,55.3983564 52.3150345,55.719204 51.544243,55.7240442 L41.0141023,55.7240442 Z" id="Shape-Copy-2" fill="#000089" fill-rule="nonzero"></path>
                        <path d="M42.9480369,50.2429907 C42.4804273,50.2393334 42.0333985,50.0467027 41.7052986,49.7074784 C41.3771988,49.368254 41.1949064,48.9102256 41.1985265,48.4341615 L41.1985265,42.2416901 C41.1985265,41.780254 40.9311143,41.6556663 40.6047808,41.9832859 L35.0707079,47.5528187 C33.3801747,49.257749 30.6560845,49.257749 28.9655514,47.5528187 L23.3861544,41.9786715 C23.0598208,41.651052 22.7924086,41.7710253 22.7924086,42.2370757 L22.7924086,48.4341615 C22.7960288,48.9102256 22.6137364,49.368254 22.2856366,49.7074784 C21.9575367,50.0467027 21.5105079,50.2393334 21.0428983,50.2429907 L8.28416352,50.2429907 C6.33844663,50.2277546 4.77258031,48.6108611 4.78514283,46.6299466 L4.78514283,22.8567629 C4.77790508,21.8091786 5.17973732,20.8015762 5.90223579,20.0556299 C6.62473426,19.3096836 7.60871174,18.8865015 8.63769152,18.8791844 L20.553398,18.8791844 C22.3714447,18.8807638 24.1143688,19.6177613 25.3985445,20.9279603 L31.6306086,27.2680912 C31.7284242,27.3681245 31.8613556,27.4243605 32,27.4243605 C32.1386444,27.4243605 32.2715758,27.3681245 32.3693914,27.2680912 L38.6014555,20.9279603 C39.8856312,19.6177613 41.6285553,18.8807638 43.446602,18.8791844 L55.3623085,18.8791844 C56.3912883,18.8865015 57.3752657,19.3096836 58.0977642,20.0556299 C58.8202627,20.8015762 59.2220949,21.8091786 59.2148572,22.8567629 L59.2148572,46.6299466 C59.2274197,48.6108611 57.6615534,50.2277546 55.7158365,50.2429907 L42.9480369,50.2429907 Z" id="Shape-Copy-3" fill="#004FC1" fill-rule="nonzero"></path>
                        <path d="M42.7383977,35.6268479 C41.7709643,35.6191533 40.9920479,34.8040405 40.9970507,33.8045802 L40.9970507,27.5361658 C40.9970507,27.0701127 40.7308862,26.9442784 40.4060754,27.2751761 L33.8241443,33.9723594 C32.7426223,35.0801159 30.9989136,35.0801159 29.9173916,33.9723594 L23.2768142,27.2705155 C22.9520033,26.9442784 22.6858389,27.0607916 22.6858389,27.5315053 L22.6858389,33.7626355 C22.6908417,34.7620957 21.9119252,35.5772085 20.9444918,35.5849031 L8.26784607,35.5849031 C7.3374026,35.5787463 6.44750583,35.1906631 5.79424,34.5061657 C5.14097418,33.8216684 4.77794781,32.8969283 4.78515194,31.9357072 L4.78515194,7.97125599 C4.77794793,6.91442569 5.17742991,5.89792671 5.89571115,5.14539055 C6.6139924,4.39285439 7.59223116,3.96592899 8.61521323,3.95853866 L20.4662981,3.95853866 C22.274397,3.96085771 24.0075282,4.70521344 25.2843257,6.02781449 L30.8692678,11.7928915 C31.4095215,12.3480415 32.2823906,12.3480415 32.8226442,11.7928915 L38.4120976,6.02781449 C39.6888951,4.70521344 41.4220263,3.96085771 43.2301253,3.95853866 L55.0812101,3.95853866 C56.1049764,3.96469763 57.0843735,4.39108076 57.8036289,5.14375104 C58.5228843,5.89642131 58.9229844,6.91362333 58.9157826,7.97125599 L58.9157826,31.9590099 C58.9229868,32.9202309 58.5599604,33.844971 57.9066946,34.5294684 C57.2534288,35.2139658 56.363532,35.602049 55.4330885,35.6082058 L42.7383977,35.6268479 Z" id="Shape-Copy-4" fill="#E01B5D" fill-rule="nonzero"></path>
                        <path d="M42.7383977,35.6268479 C41.7709643,35.6191533 40.9920479,34.8040405 40.9970507,33.8045802 L40.9970507,27.5361658 C40.9970507,27.0701127 40.7308862,26.9442784 40.4060754,27.2751761 L33.8241443,33.9723594 C32.7426223,35.0801159 30.9989136,35.0801159 29.9173916,33.9723594 L23.2768142,27.2705155 C22.9520033,26.9442784 22.6858389,27.0607916 22.6858389,27.5315053 L22.6858389,33.7626355 C22.6908417,34.7620957 21.9119252,35.5772085 20.9444918,35.5849031 L8.26784607,35.5849031 C7.3374026,35.5787463 6.44750583,35.1906631 5.79424,34.5061657 C5.14097418,33.8216684 4.77794781,32.8969283 4.78515194,31.9357072 L4.78515194,7.97125599 C4.77794793,6.91442569 5.17742991,5.89792671 5.89571115,5.14539055 C6.6139924,4.39285439 7.59223116,3.96592899 8.61521323,3.95853866 L20.4662981,3.95853866 C22.274397,3.96085771 24.0075282,4.70521344 25.2843257,6.02781449 L30.8692678,11.7928915 C31.4095215,12.3480415 32.2823906,12.3480415 32.8226442,11.7928915 L38.4120976,6.02781449 C39.6888951,4.70521344 41.4220263,3.96085771 43.2301253,3.95853866 L55.0812101,3.95853866 C56.1049764,3.96469763 57.0843735,4.39108076 57.8036289,5.14375104 C58.5228843,5.89642131 58.9229844,6.91362333 58.9157826,7.97125599 L58.9157826,31.9590099 C58.9229868,32.9202309 58.5599604,33.844971 57.9066946,34.5294684 C57.2534288,35.2139658 56.363532,35.602049 55.4330885,35.6082058 L42.7383977,35.6268479 Z" id="Shape-Copy-4" fill="url(#linearGradient-2)" fill-rule="nonzero"></path>
                        <g id="Path-2" transform="translate(0.000000, 9.163636)">
                            <mask id="mask-4" fill="white">
                                <use xlink:href="#path-3"></use>
                            </mask>
                            <use id="Mask" fill="#F2C733" fill-rule="nonzero" xlink:href="#path-3"></use>
                            <path d="M7,0.189072294 C15.1981062,-0.212787559 20.1946267,0.109094733 21.9895614,1.15471917 C24.6819636,2.72315582 30.7127616,10.4666707 31.4833803,10.4472352 C32.253999,10.4277998 39.4257839,1.6288875 42.1601104,0.640452499 C43.9829947,-0.0185041696 48.8112445,-0.168964238 56.6448598,0.189072294 L25.4817508,31.9728122 L20.9958472,27.3367431 L8.94530075,27.3367431 L7,0.189072294 Z" fill="url(#linearGradient-5)" mask="url(#mask-4)"></path>
                        </g>
                    </g>
                </g>
            </g>
        </g>
    </g>
</svg>
