<?xml version="1.0" encoding="UTF-8"?>
<svg width="24px" height="24px" viewBox="0 0 24 24" version="1.1" xmlns="http://www.w3.org/2000/svg" xmlns:xlink="http://www.w3.org/1999/xlink">
    <!-- Generator: sketchtool 53.1 (72631) - https://sketchapp.com -->
    <title>2E8DFDCF-2B6B-41E3-BAA9-E08F31B6C8F0</title>
    <desc>Created with sketchtool.</desc>
    <g id="Symbols" stroke="none" stroke-width="1" fill="none" fill-rule="evenodd">
        <g id="Icon/ic-user">
            <rect id="Rectangle" x="0" y="0" width="24" height="24"></rect>
            <path d="M8.9977638,11.6432887 C8.37673212,10.9384713 8,10.0132309 8,9 C8,6.790861 9.790861,5 12,5 C14.209139,5 16,6.790861 16,9 C16,10.0132309 15.6232679,10.9384713 15.0022362,11.6432887 C17.7659512,12.9490492 19,15.9593555 19,18 C19,20.67 5,20.67 5,18 C5,15.9593555 6.23404882,12.9490492 8.9977638,11.6432887 Z M12,11 C13.1045695,11 14,10.1045695 14,9 C14,7.8954305 13.1045695,7 12,7 C10.8954305,7 10,7.8954305 10,9 C10,10.1045695 10.8954305,11 12,11 Z M7.68038572,17.5635604 C8.77791401,17.8426461 10.3495111,18.0025 12,18.0025 C13.6504889,18.0025 15.222086,17.8426461 16.3196143,17.5635604 C16.5722277,17.4993244 16.7871601,17.4316316 16.9574573,17.3666514 C16.6528762,15.0938057 14.7372395,13 12,13 C9.26276049,13 7.34712385,15.0938057 7.0425427,17.3666514 C7.21283985,17.4316316 7.42777225,17.4993244 7.68038572,17.5635604 Z" id="Combined-Shape" fill="#A2A8B4" fill-rule="nonzero"></path>
        </g>
    </g>
</svg>